<svg width="1728" height="1117" viewBox="0 0 1728 1117" fill="none" xmlns="http://www.w3.org/2000/svg">
<g clip-path="url(#clip0_31_2)">
<rect width="1728" height="1117" fill="#353535"/>
<g filter="url(#filter0_d_31_2)">
<path d="M-49.5 1041L63.3695 921.887C65.6757 919.453 69.6766 919.934 71.3401 922.845L104.064 980.112C105.889 983.306 110.422 983.502 112.516 980.477L198 857L289.291 709.53C291.615 705.776 297.308 706.656 298.39 710.936L339.796 874.779C340.757 878.581 345.521 879.847 348.243 877.024L422.5 800L501.956 700.183C502.316 699.731 502.595 699.22 502.78 698.673L558.383 534.491C560.118 529.368 567.621 530.265 568.099 535.653L586.425 742.155C586.475 742.714 586.618 743.261 586.849 743.773L646.671 876.135C648.201 879.52 652.758 880.114 655.104 877.233L739.604 773.486C739.867 773.163 740.089 772.809 740.264 772.431L800.5 642.5L870.5 465.5L928.101 332.747C930.055 328.244 936.65 328.958 937.595 333.775L991 606L1020.77 698.777C1020.92 699.256 1021.15 699.709 1021.44 700.121L1086.28 792.552C1088.54 795.78 1093.48 795.239 1094.99 791.597L1172 606C1196.33 547 1245.7 425.6 1248.5 412C1251.04 399.649 1283.19 333.304 1303.31 292.884C1305.33 288.816 1311.29 289.363 1312.55 293.727L1362.5 465.5L1420.86 637.662C1421.76 640.317 1424.67 641.713 1427.3 640.756L1520.48 606.916C1522.05 606.344 1523.24 605.021 1523.63 603.393L1576.42 385.351C1576.47 385.117 1576.54 384.888 1576.63 384.665L1643.27 218.561C1643.42 218.188 1643.53 217.814 1643.58 217.416C1647.01 193.687 1657.63 144.711 1673.5 134C1689.5 123.2 1727.17 102.833 1744 94" stroke="#F3DC62" stroke-width="5"/>
</g>
</g>
<defs>
<filter id="filter0_d_31_2" x="-61.3147" y="85.7864" width="1816.48" height="970.933" filterUnits="userSpaceOnUse" color-interpolation-filters="sRGB">
<feFlood flood-opacity="0" result="BackgroundImageFix"/>
<feColorMatrix in="SourceAlpha" type="matrix" values="0 0 0 0 0 0 0 0 0 0 0 0 0 0 0 0 0 0 127 0" result="hardAlpha"/>
<feOffset dy="4"/>
<feGaussianBlur stdDeviation="5"/>
<feComposite in2="hardAlpha" operator="out"/>
<feColorMatrix type="matrix" values="0 0 0 0 0.954167 0 0 0 0 0.863203 0 0 0 0 0.385642 0 0 0 1 0"/>
<feBlend mode="normal" in2="BackgroundImageFix" result="effect1_dropShadow_31_2"/>
<feBlend mode="normal" in="SourceGraphic" in2="effect1_dropShadow_31_2" result="shape"/>
</filter>
<clipPath id="clip0_31_2">
<rect width="1728" height="1117" fill="white"/>
</clipPath>
</defs>
</svg>
