<svg width="147" height="49" viewBox="0 0 147 49" fill="none" xmlns="http://www.w3.org/2000/svg">
<path fill-rule="evenodd" clip-rule="evenodd" d="M2.65206 2.27319C4.11676 2.27319 5.30412 3.46056 5.30412 4.92526V17.4278C5.30412 19.5203 7.00036 21.2165 9.09278 21.2165H17.4278C19.5203 21.2165 21.2165 19.5203 21.2165 17.4278V4.92526C21.2165 3.46056 22.4039 2.27319 23.8686 2.27319C25.3333 2.27319 26.5206 3.46056 26.5206 4.92525V43.5696C26.5206 45.0343 25.3333 46.2216 23.8686 46.2216C22.4039 46.2216 21.2165 45.0343 21.2165 43.5696V31.067C21.2165 28.9746 19.5203 27.2784 17.4278 27.2784H9.09278C7.00036 27.2784 5.30412 28.9746 5.30412 31.067V43.5696C5.30412 45.0343 4.11676 46.2216 2.65206 46.2216C1.18737 46.2216 0 45.0343 0 43.5696V4.92525C0 3.46056 1.18737 2.27319 2.65206 2.27319Z" fill="white"/>
<path fill-rule="evenodd" clip-rule="evenodd" d="M139.342 5.1709C139.342 3.41966 137.922 2 136.171 2C134.42 2 133 3.41966 133 5.1709V42.7776C133 44.5288 134.42 45.9485 136.171 45.9485C137.922 45.9485 139.342 44.5288 139.342 42.7776V5.1709Z" fill="white"/>
<path fill-rule="evenodd" clip-rule="evenodd" d="M107.421 5.21068C107.421 3.43747 105.984 2 104.211 2C102.437 2 101 3.43747 101 5.21068V42.2113C101 44.3038 102.696 46 104.789 46H125.08C126.693 46 128 44.6926 128 43.0799C128 41.4672 126.693 40.1598 125.08 40.1598H111.21C109.118 40.1598 107.421 38.4636 107.421 36.3711V5.21068Z" fill="white"/>
<path fill-rule="evenodd" clip-rule="evenodd" d="M50.4076 0.205535C53.8233 0.83658 57.0159 2.89756 59.5735 6.10369C60.0287 6.67432 60.1516 7.43525 59.9497 8.13671C59.3957 10.0606 56.647 10.649 55.0283 9.47085C53.2465 8.17387 51.276 7.17294 49.7791 6.89638C47.0963 6.40074 44.3718 7.16021 42.0282 9.05704C39.6845 10.9539 37.8525 13.8821 36.8164 17.3876C35.7802 20.8932 35.5977 24.7802 36.2971 28.446C36.9966 32.1118 38.539 35.3516 40.685 37.663C42.8311 39.9744 45.4611 41.2283 48.167 41.2303C50.873 41.2322 53.5038 39.9821 55.6516 37.6738C57.6355 35.5417 61.3403 23.0773 62.4474 18.2993C62.4489 18.2929 62.4453 18.2868 62.4391 18.2845C62.4331 18.2822 62.4295 18.2759 62.4307 18.2696C63.4087 13.1747 65.5572 8.67405 68.5435 5.46449C71.532 2.25262 75.1927 0.513193 78.9579 0.515908C82.723 0.518623 86.3824 2.26333 89.3685 5.4795C92.3547 8.69568 94.5008 13.2036 95.474 18.3044C96.4473 23.4051 96.1933 28.8137 94.7516 33.6914C93.3098 38.5692 90.7608 42.6436 87.4997 45.2829C84.2386 47.9222 80.4477 48.979 76.7148 48.2893C73.1069 47.6228 66.6791 44.8223 64.0075 38.3475C63.8254 37.9062 63.8191 37.4143 63.9592 36.958C64.5202 35.1307 67.0176 34.809 68.231 36.2858C71.827 40.6626 74.6503 41.1401 76.779 41.5002C76.9729 41.533 77.1609 41.5648 77.3433 41.5985C80.0261 42.0941 82.7506 41.3346 85.0942 39.4378C87.4379 37.541 89.2699 34.6128 90.306 31.1072C91.3422 27.6017 91.5247 23.7146 90.8253 20.0488C90.1258 16.383 88.5835 13.1432 86.4374 10.8318C84.2913 8.5204 81.6614 7.26652 78.9554 7.26456C76.2494 7.26261 73.6186 8.51271 71.4708 10.821C69.3318 13.1199 67.7909 16.3404 67.0848 19.9867C67.0803 20.0101 67.0557 20.024 67.0333 20.0156C67.0113 20.0073 66.9875 20.0187 66.9824 20.0416C65.6886 25.9018 61.3998 39.9986 58.5789 43.0304C55.5904 46.2422 51.9297 47.9817 48.1646 47.9789C44.3994 47.9762 40.74 46.2315 37.7539 43.0153C34.7677 39.7992 32.6216 35.2912 31.6484 30.1905C30.6751 25.0897 30.9291 19.6812 32.3708 14.8034C33.8126 9.92568 36.3616 5.85127 39.6227 3.21196C42.8838 0.572643 46.6747 -0.484117 50.4076 0.205535Z" fill="#F3DC62"/>
</svg>
