<svg width="518" height="200" viewBox="0 0 518 200" fill="none" xmlns="http://www.w3.org/2000/svg">
<g clip-path="url(#clip0_113_85)">
<path d="M50.4042 165H514.123" stroke="#D9D9D9"/>
<path d="M50.4042 171V165" stroke="#D9D9D9"/>
<path d="M50.4042 183.119C49.7621 183.119 49.2153 182.945 48.7636 182.595C48.3119 182.243 47.9667 181.733 47.7281 181.065C47.4894 180.395 47.3701 179.585 47.3701 178.636C47.3701 177.693 47.4894 176.888 47.7281 176.22C47.9695 175.55 48.3161 175.038 48.7678 174.686C49.2224 174.331 49.7678 174.153 50.4042 174.153C51.0406 174.153 51.5846 174.331 52.0363 174.686C52.4908 175.038 52.8374 175.55 53.0761 176.22C53.3175 176.888 53.4383 177.693 53.4383 178.636C53.4383 179.585 53.319 180.395 53.0803 181.065C52.8417 181.733 52.4965 182.243 52.0448 182.595C51.5931 182.945 51.0462 183.119 50.4042 183.119ZM50.4042 182.182C51.0406 182.182 51.5349 181.875 51.8871 181.261C52.2394 180.648 52.4156 179.773 52.4156 178.636C52.4156 177.881 52.3346 177.237 52.1727 176.706C52.0136 176.175 51.7835 175.77 51.4823 175.491C51.184 175.213 50.8246 175.074 50.4042 175.074C49.7735 175.074 49.2806 175.385 48.9255 176.007C48.5704 176.626 48.3928 177.503 48.3928 178.636C48.3928 179.392 48.4724 180.034 48.6315 180.562C48.7906 181.091 49.0192 181.493 49.3175 181.768C49.6187 182.044 49.9809 182.182 50.4042 182.182Z" fill="#D9D9D9"/>
<path d="M101.928 171V165" stroke="#D9D9D9"/>
<path d="M103.111 174.273V183H102.054V175.381H102.003L99.8724 176.795V175.722L102.054 174.273H103.111Z" fill="#D9D9D9"/>
<path d="M153.453 171V165" stroke="#D9D9D9"/>
<path d="M150.723 183V182.233L153.604 179.08C153.942 178.71 154.221 178.389 154.439 178.116C154.658 177.841 154.82 177.582 154.925 177.341C155.033 177.097 155.087 176.841 155.087 176.574C155.087 176.267 155.013 176.001 154.865 175.777C154.721 175.553 154.522 175.379 154.269 175.257C154.016 175.135 153.732 175.074 153.417 175.074C153.081 175.074 152.789 175.143 152.539 175.283C152.292 175.419 152.1 175.611 151.963 175.858C151.83 176.105 151.763 176.395 151.763 176.727H150.757C150.757 176.216 150.875 175.767 151.111 175.381C151.347 174.994 151.668 174.693 152.074 174.477C152.483 174.261 152.942 174.153 153.451 174.153C153.962 174.153 154.415 174.261 154.81 174.477C155.205 174.693 155.515 174.984 155.739 175.351C155.963 175.717 156.076 176.125 156.076 176.574C156.076 176.895 156.017 177.209 155.901 177.516C155.787 177.82 155.588 178.159 155.304 178.534C155.023 178.906 154.632 179.361 154.132 179.898L152.172 181.994V182.062H156.229V183H150.723Z" fill="#D9D9D9"/>
<path d="M204.977 171V165" stroke="#D9D9D9"/>
<path d="M205.009 183.119C204.447 183.119 203.945 183.023 203.505 182.83C203.067 182.636 202.719 182.368 202.461 182.024C202.205 181.678 202.066 181.276 202.043 180.818H203.117C203.14 181.099 203.236 181.342 203.407 181.547C203.577 181.749 203.8 181.905 204.076 182.016C204.351 182.126 204.657 182.182 204.992 182.182C205.367 182.182 205.699 182.116 205.989 181.986C206.279 181.855 206.506 181.673 206.671 181.44C206.836 181.207 206.918 180.938 206.918 180.631C206.918 180.31 206.839 180.027 206.679 179.783C206.52 179.536 206.287 179.342 205.981 179.203C205.674 179.064 205.299 178.994 204.856 178.994H204.157V178.057H204.856C205.202 178.057 205.506 177.994 205.768 177.869C206.032 177.744 206.238 177.568 206.385 177.341C206.536 177.114 206.611 176.847 206.611 176.54C206.611 176.244 206.546 175.987 206.415 175.768C206.285 175.55 206.1 175.379 205.861 175.257C205.625 175.135 205.347 175.074 205.026 175.074C204.725 175.074 204.441 175.129 204.174 175.24C203.91 175.348 203.694 175.506 203.526 175.713C203.358 175.918 203.268 176.165 203.253 176.455H202.231C202.248 175.997 202.385 175.597 202.644 175.253C202.902 174.906 203.241 174.636 203.658 174.443C204.079 174.25 204.54 174.153 205.043 174.153C205.583 174.153 206.046 174.263 206.432 174.482C206.819 174.697 207.116 174.983 207.323 175.338C207.53 175.693 207.634 176.077 207.634 176.489C207.634 176.98 207.505 177.399 207.246 177.746C206.991 178.092 206.643 178.332 206.202 178.466V178.534C206.753 178.625 207.184 178.859 207.493 179.237C207.803 179.612 207.958 180.077 207.958 180.631C207.958 181.105 207.829 181.531 207.57 181.909C207.314 182.284 206.965 182.58 206.522 182.795C206.079 183.011 205.574 183.119 205.009 183.119Z" fill="#D9D9D9"/>
<path d="M256.501 171V165" stroke="#D9D9D9"/>
<path d="M253.351 181.21V180.341L257.186 174.273H257.816V175.619H257.39L254.493 180.205V180.273H259.657V181.21H253.351ZM257.459 183V180.946V180.541V174.273H258.464V183H257.459Z" fill="#D9D9D9"/>
<path d="M308.026 171V165" stroke="#D9D9D9"/>
<path d="M308.006 183.119C307.506 183.119 307.056 183.02 306.655 182.821C306.254 182.622 305.933 182.349 305.692 182.003C305.451 181.656 305.318 181.261 305.296 180.818H306.318C306.358 181.213 306.537 181.54 306.855 181.798C307.176 182.054 307.56 182.182 308.006 182.182C308.364 182.182 308.682 182.098 308.96 181.93C309.242 181.763 309.462 181.533 309.621 181.24C309.783 180.945 309.864 180.611 309.864 180.239C309.864 179.858 309.78 179.518 309.612 179.22C309.448 178.919 309.22 178.682 308.931 178.509C308.641 178.335 308.31 178.247 307.938 178.244C307.671 178.241 307.397 178.283 307.115 178.368C306.834 178.45 306.603 178.557 306.421 178.688L305.432 178.568L305.96 174.273H310.495V175.21H306.847L306.54 177.784H306.591C306.77 177.642 306.995 177.524 307.264 177.43C307.534 177.337 307.816 177.29 308.108 177.29C308.642 177.29 309.118 177.418 309.536 177.673C309.956 177.926 310.286 178.273 310.524 178.713C310.766 179.153 310.887 179.656 310.887 180.222C310.887 180.778 310.762 181.276 310.512 181.713C310.264 182.148 309.924 182.491 309.489 182.744C309.054 182.994 308.56 183.119 308.006 183.119Z" fill="#D9D9D9"/>
<path d="M359.55 171V165" stroke="#D9D9D9"/>
<path d="M359.607 183.119C359.249 183.114 358.891 183.045 358.533 182.915C358.175 182.784 357.848 182.564 357.553 182.254C357.257 181.942 357.02 181.52 356.841 180.989C356.662 180.455 356.573 179.784 356.573 178.977C356.573 178.205 356.645 177.52 356.79 176.923C356.935 176.324 357.145 175.82 357.421 175.411C357.696 174.999 358.029 174.686 358.418 174.473C358.81 174.26 359.252 174.153 359.743 174.153C360.232 174.153 360.667 174.251 361.047 174.447C361.431 174.641 361.743 174.911 361.985 175.257C362.226 175.604 362.382 176.003 362.453 176.455H361.414C361.317 176.062 361.13 175.737 360.851 175.479C360.573 175.22 360.203 175.091 359.743 175.091C359.067 175.091 358.534 175.385 358.145 175.973C357.759 176.561 357.564 177.386 357.561 178.449H357.63C357.789 178.207 357.978 178.001 358.196 177.831C358.418 177.658 358.662 177.524 358.929 177.43C359.196 177.337 359.479 177.29 359.777 177.29C360.277 177.29 360.735 177.415 361.149 177.665C361.564 177.912 361.897 178.254 362.147 178.692C362.397 179.126 362.522 179.625 362.522 180.188C362.522 180.727 362.401 181.222 362.159 181.67C361.918 182.116 361.578 182.472 361.141 182.736C360.706 182.997 360.195 183.125 359.607 183.119ZM359.607 182.182C359.965 182.182 360.286 182.092 360.57 181.913C360.857 181.734 361.083 181.494 361.248 181.193C361.415 180.892 361.499 180.557 361.499 180.188C361.499 179.827 361.418 179.499 361.256 179.203C361.097 178.905 360.877 178.668 360.596 178.491C360.317 178.315 359.999 178.227 359.641 178.227C359.371 178.227 359.12 178.281 358.887 178.389C358.654 178.494 358.449 178.639 358.273 178.824C358.1 179.009 357.963 179.22 357.864 179.459C357.765 179.695 357.715 179.943 357.715 180.205C357.715 180.551 357.796 180.875 357.958 181.176C358.123 181.477 358.347 181.72 358.631 181.905C358.918 182.089 359.243 182.182 359.607 182.182Z" fill="#D9D9D9"/>
<path d="M411.074 171V165" stroke="#D9D9D9"/>
<path d="M408.823 183L412.726 175.278V175.21H408.226V174.273H413.817V175.261L409.931 183H408.823Z" fill="#D9D9D9"/>
<path d="M462.598 171V165" stroke="#D9D9D9"/>
<path d="M462.6 183.119C462.015 183.119 461.498 183.016 461.049 182.808C460.603 182.598 460.255 182.31 460.005 181.943C459.755 181.574 459.631 181.153 459.634 180.682C459.631 180.312 459.704 179.972 459.851 179.659C459.999 179.344 460.201 179.081 460.457 178.871C460.715 178.658 461.003 178.523 461.322 178.466V178.415C460.904 178.307 460.572 178.072 460.324 177.712C460.077 177.348 459.955 176.935 459.958 176.472C459.955 176.028 460.067 175.632 460.295 175.283C460.522 174.933 460.834 174.658 461.232 174.456C461.633 174.254 462.089 174.153 462.6 174.153C463.106 174.153 463.557 174.254 463.955 174.456C464.353 174.658 464.665 174.933 464.893 175.283C465.123 175.632 465.239 176.028 465.242 176.472C465.239 176.935 465.113 177.348 464.863 177.712C464.616 178.072 464.288 178.307 463.878 178.415V178.466C464.194 178.523 464.478 178.658 464.731 178.871C464.984 179.081 465.185 179.344 465.336 179.659C465.486 179.972 465.563 180.312 465.566 180.682C465.563 181.153 465.435 181.574 465.182 181.943C464.932 182.31 464.584 182.598 464.138 182.808C463.695 183.016 463.182 183.119 462.6 183.119ZM462.6 182.182C462.995 182.182 463.336 182.118 463.623 181.99C463.91 181.862 464.131 181.682 464.288 181.449C464.444 181.216 464.523 180.943 464.526 180.631C464.523 180.301 464.438 180.01 464.271 179.757C464.103 179.504 463.874 179.305 463.584 179.161C463.298 179.016 462.969 178.943 462.6 178.943C462.228 178.943 461.896 179.016 461.603 179.161C461.313 179.305 461.084 179.504 460.917 179.757C460.752 180.01 460.671 180.301 460.674 180.631C460.671 180.943 460.746 181.216 460.9 181.449C461.056 181.682 461.279 181.862 461.569 181.99C461.859 182.118 462.202 182.182 462.6 182.182ZM462.6 178.04C462.913 178.04 463.19 177.977 463.431 177.852C463.675 177.727 463.867 177.553 464.006 177.328C464.146 177.104 464.217 176.841 464.219 176.54C464.217 176.244 464.147 175.987 464.011 175.768C463.874 175.547 463.685 175.376 463.444 175.257C463.202 175.135 462.921 175.074 462.6 175.074C462.273 175.074 461.988 175.135 461.744 175.257C461.499 175.376 461.31 175.547 461.177 175.768C461.043 175.987 460.978 176.244 460.981 176.54C460.978 176.841 461.045 177.104 461.181 177.328C461.32 177.553 461.512 177.727 461.756 177.852C462.001 177.977 462.282 178.04 462.6 178.04Z" fill="#D9D9D9"/>
<path d="M514.123 171V165" stroke="#D9D9D9"/>
<path d="M514.06 174.153C514.418 174.156 514.776 174.224 515.134 174.358C515.492 174.491 515.819 174.713 516.114 175.023C516.41 175.33 516.647 175.749 516.826 176.28C517.005 176.811 517.095 177.477 517.095 178.278C517.095 179.054 517.021 179.743 516.873 180.345C516.728 180.945 516.518 181.45 516.242 181.862C515.97 182.274 515.637 182.587 515.245 182.8C514.856 183.013 514.416 183.119 513.924 183.119C513.435 183.119 512.999 183.023 512.616 182.83C512.235 182.634 511.923 182.362 511.678 182.016C511.437 181.666 511.282 181.261 511.214 180.801H512.254C512.347 181.202 512.533 181.533 512.812 181.794C513.093 182.053 513.464 182.182 513.924 182.182C514.597 182.182 515.129 181.888 515.518 181.3C515.91 180.712 516.106 179.881 516.106 178.807H516.038C515.879 179.045 515.69 179.251 515.471 179.425C515.252 179.598 515.009 179.732 514.742 179.825C514.475 179.919 514.191 179.966 513.89 179.966C513.39 179.966 512.931 179.842 512.514 179.595C512.099 179.345 511.766 179.003 511.516 178.568C511.269 178.131 511.146 177.631 511.146 177.068C511.146 176.534 511.265 176.045 511.504 175.602C511.745 175.156 512.083 174.801 512.518 174.537C512.955 174.273 513.47 174.145 514.06 174.153ZM514.06 175.091C513.702 175.091 513.38 175.18 513.093 175.359C512.809 175.536 512.583 175.774 512.416 176.075C512.251 176.374 512.168 176.705 512.168 177.068C512.168 177.432 512.248 177.763 512.407 178.061C512.569 178.357 512.789 178.592 513.068 178.768C513.349 178.942 513.668 179.028 514.026 179.028C514.296 179.028 514.548 178.976 514.781 178.871C515.014 178.763 515.217 178.616 515.39 178.432C515.566 178.244 515.704 178.033 515.803 177.797C515.903 177.558 515.952 177.31 515.952 177.051C515.952 176.71 515.87 176.391 515.705 176.092C515.543 175.794 515.319 175.553 515.032 175.368C514.748 175.183 514.424 175.091 514.06 175.091Z" fill="#D9D9D9"/>
<path d="M50.4042 5V165" stroke="#D9D9D9"/>
<path d="M45.7515 165H50.4042" stroke="#D9D9D9"/>
<path d="M38.1243 165.119C37.4822 165.119 36.9353 164.945 36.4836 164.595C36.0319 164.243 35.6868 163.733 35.4481 163.065C35.2095 162.395 35.0902 161.585 35.0902 160.636C35.0902 159.693 35.2095 158.888 35.4481 158.22C35.6896 157.55 36.0362 157.038 36.4879 156.686C36.9424 156.331 37.4879 156.153 38.1243 156.153C38.7606 156.153 39.3046 156.331 39.7564 156.686C40.2109 157.038 40.5575 157.55 40.7961 158.22C41.0376 158.888 41.1583 159.693 41.1583 160.636C41.1583 161.585 41.039 162.395 40.8004 163.065C40.5618 163.733 40.2166 164.243 39.7649 164.595C39.3132 164.945 38.7663 165.119 38.1243 165.119ZM38.1243 164.182C38.7606 164.182 39.2549 163.875 39.6072 163.261C39.9595 162.648 40.1356 161.773 40.1356 160.636C40.1356 159.881 40.0546 159.237 39.8927 158.706C39.7336 158.175 39.5035 157.77 39.2024 157.491C38.9041 157.213 38.5447 157.074 38.1243 157.074C37.4936 157.074 37.0007 157.385 36.6456 158.007C36.2904 158.626 36.1129 159.503 36.1129 160.636C36.1129 161.392 36.1924 162.034 36.3515 162.562C36.5106 163.091 36.7393 163.493 37.0376 163.768C37.3387 164.044 37.701 164.182 38.1243 164.182Z" fill="#D9D9D9"/>
<path d="M45.7515 125H50.4042" stroke="#D9D9D9"/>
<path d="M32.9669 116.273V125H31.9101V117.381H31.859L29.7283 118.795V117.722L31.9101 116.273H32.9669ZM38.2042 125.119C37.7042 125.119 37.2539 125.02 36.8533 124.821C36.4527 124.622 36.1317 124.349 35.8902 124.003C35.6488 123.656 35.5167 123.261 35.4939 122.818H36.5167C36.5564 123.213 36.7354 123.54 37.0536 123.798C37.3746 124.054 37.7581 124.182 38.2042 124.182C38.5621 124.182 38.8803 124.098 39.1587 123.93C39.4399 123.763 39.6601 123.533 39.8192 123.24C39.9811 122.945 40.0621 122.611 40.0621 122.239C40.0621 121.858 39.9783 121.518 39.8107 121.22C39.6459 120.919 39.4186 120.682 39.1289 120.509C38.8391 120.335 38.5081 120.247 38.136 120.244C37.8689 120.241 37.5948 120.283 37.3135 120.368C37.0323 120.45 36.8007 120.557 36.6189 120.688L35.6303 120.568L36.1587 116.273H40.6928V117.21H37.0451L36.7382 119.784H36.7894C36.9684 119.642 37.1928 119.524 37.4627 119.43C37.7326 119.337 38.0138 119.29 38.3064 119.29C38.8405 119.29 39.3164 119.418 39.734 119.673C40.1544 119.926 40.484 120.273 40.7226 120.713C40.9641 121.153 41.0848 121.656 41.0848 122.222C41.0848 122.778 40.9598 123.276 40.7098 123.713C40.4627 124.148 40.1218 124.491 39.6871 124.744C39.2524 124.994 38.7581 125.119 38.2042 125.119ZM38.1243 140.119C37.4822 140.119 36.9353 139.945 36.4836 139.595C36.0319 139.243 35.6868 138.733 35.4481 138.065C35.2095 137.395 35.0902 136.585 35.0902 135.636C35.0902 134.693 35.2095 133.888 35.4481 133.22C35.6896 132.55 36.0362 132.038 36.4879 131.686C36.9424 131.331 37.4879 131.153 38.1243 131.153C38.7606 131.153 39.3047 131.331 39.7564 131.686C40.2109 132.038 40.5575 132.55 40.7961 133.22C41.0376 133.888 41.1583 134.693 41.1583 135.636C41.1583 136.585 41.039 137.395 40.8004 138.065C40.5618 138.733 40.2166 139.243 39.7649 139.595C39.3132 139.945 38.7663 140.119 38.1243 140.119ZM38.1243 139.182C38.7606 139.182 39.2549 138.875 39.6072 138.261C39.9595 137.648 40.1356 136.773 40.1356 135.636C40.1356 134.881 40.0547 134.237 39.8927 133.706C39.7336 133.175 39.5035 132.77 39.2024 132.491C38.9041 132.213 38.5447 132.074 38.1243 132.074C37.4936 132.074 37.0007 132.385 36.6456 133.007C36.2904 133.626 36.1129 134.503 36.1129 135.636C36.1129 136.392 36.1924 137.034 36.3515 137.562C36.5106 138.091 36.7393 138.493 37.0376 138.768C37.3387 139.044 37.701 139.182 38.1243 139.182Z" fill="#D9D9D9"/>
<path d="M45.7515 85H50.4042" stroke="#D9D9D9"/>
<path d="M30.5859 85.1193C30.0234 85.1193 29.522 85.0227 29.0816 84.8295C28.6441 84.6364 28.2961 84.3679 28.0376 84.0241C27.7819 83.6776 27.6427 83.2756 27.62 82.8182H28.6939C28.7166 83.0994 28.8132 83.3423 28.9836 83.5469C29.1541 83.7486 29.3771 83.9048 29.6527 84.0156C29.9282 84.1264 30.2336 84.1818 30.5689 84.1818C30.9439 84.1818 31.2762 84.1165 31.566 83.9858C31.8558 83.8551 32.0831 83.6733 32.2478 83.4403C32.4126 83.2074 32.495 82.9375 32.495 82.6307C32.495 82.3097 32.4154 82.027 32.2564 81.7827C32.0973 81.5355 31.8643 81.3423 31.5575 81.2031C31.2507 81.0639 30.8757 80.9943 30.4325 80.9943H29.7336V80.0568H30.4325C30.7791 80.0568 31.0831 79.9943 31.3444 79.8693C31.6086 79.7443 31.8146 79.5682 31.9623 79.3409C32.1129 79.1136 32.1882 78.8466 32.1882 78.5398C32.1882 78.2443 32.1228 77.9872 31.9921 77.7685C31.8615 77.5497 31.6768 77.3793 31.4382 77.2571C31.2024 77.1349 30.924 77.0739 30.6029 77.0739C30.3018 77.0739 30.0177 77.1293 29.7507 77.2401C29.4865 77.348 29.2706 77.5057 29.1029 77.7131C28.9353 77.9176 28.8444 78.1648 28.8302 78.4545H27.8075C27.8245 77.9972 27.9623 77.5966 28.2208 77.2528C28.4794 76.9062 28.8174 76.6364 29.235 76.4432C29.6555 76.25 30.1171 76.1534 30.62 76.1534C31.1598 76.1534 31.6228 76.2628 32.0092 76.4815C32.3956 76.6974 32.6924 76.983 32.8998 77.3381C33.1072 77.6932 33.2109 78.0767 33.2109 78.4886C33.2109 78.9801 33.0816 79.3991 32.8231 79.7457C32.5674 80.0923 32.2194 80.3324 31.7791 80.4659V80.5341C32.3302 80.625 32.7606 80.8594 33.0703 81.2372C33.3799 81.6122 33.5348 82.0767 33.5348 82.6307C33.5348 83.1051 33.4055 83.5312 33.147 83.9091C32.8913 84.2841 32.5419 84.5795 32.0987 84.7955C31.6555 85.0114 31.1512 85.1193 30.5859 85.1193ZM38.1243 85.1193C37.4822 85.1193 36.9353 84.9446 36.4836 84.5952C36.0319 84.2429 35.6868 83.733 35.4481 83.0653C35.2095 82.3949 35.0902 81.5852 35.0902 80.6364C35.0902 79.6932 35.2095 78.8878 35.4481 78.2202C35.6896 77.5497 36.0362 77.0384 36.4879 76.6861C36.9424 76.331 37.4879 76.1534 38.1243 76.1534C38.7606 76.1534 39.3046 76.331 39.7564 76.6861C40.2109 77.0384 40.5575 77.5497 40.7961 78.2202C41.0376 78.8878 41.1583 79.6932 41.1583 80.6364C41.1583 81.5852 41.039 82.3949 40.8004 83.0653C40.5618 83.733 40.2166 84.2429 39.7649 84.5952C39.3132 84.9446 38.7663 85.1193 38.1243 85.1193ZM38.1243 84.1818C38.7606 84.1818 39.2549 83.875 39.6072 83.2614C39.9595 82.6477 40.1356 81.7727 40.1356 80.6364C40.1356 79.8807 40.0546 79.2372 39.8927 78.706C39.7336 78.1747 39.5035 77.7699 39.2024 77.4915C38.9041 77.2131 38.5447 77.0739 38.1243 77.0739C37.4936 77.0739 37.0007 77.3849 36.6456 78.0071C36.2904 78.6264 36.1129 79.5028 36.1129 80.6364C36.1129 81.392 36.1924 82.0341 36.3515 82.5625C36.5106 83.0909 36.7393 83.4929 37.0376 83.7685C37.3387 84.044 37.701 84.1818 38.1243 84.1818ZM38.1243 100.119C37.4822 100.119 36.9353 99.9446 36.4836 99.5952C36.0319 99.2429 35.6868 98.733 35.4481 98.0653C35.2095 97.3949 35.0902 96.5852 35.0902 95.6364C35.0902 94.6932 35.2095 93.8878 35.4481 93.2202C35.6896 92.5497 36.0362 92.0384 36.4879 91.6861C36.9424 91.331 37.4879 91.1534 38.1243 91.1534C38.7606 91.1534 39.3046 91.331 39.7564 91.6861C40.2109 92.0384 40.5575 92.5497 40.7961 93.2202C41.0376 93.8878 41.1583 94.6932 41.1583 95.6364C41.1583 96.5852 41.039 97.3949 40.8004 98.0653C40.5618 98.733 40.2166 99.2429 39.7649 99.5952C39.3132 99.9446 38.7663 100.119 38.1243 100.119ZM38.1243 99.1818C38.7606 99.1818 39.2549 98.875 39.6072 98.2614C39.9595 97.6477 40.1356 96.7727 40.1356 95.6364C40.1356 94.8807 40.0546 94.2372 39.8927 93.706C39.7336 93.1747 39.5035 92.7699 39.2024 92.4915C38.9041 92.2131 38.5447 92.0739 38.1243 92.0739C37.4936 92.0739 37.0007 92.3849 36.6456 93.0071C36.2904 93.6264 36.1129 94.5028 36.1129 95.6364C36.1129 96.392 36.1924 97.0341 36.3515 97.5625C36.5106 98.0909 36.7393 98.4929 37.0376 98.7685C37.3387 99.044 37.701 99.1818 38.1243 99.1818Z" fill="#D9D9D9"/>
<path d="M45.7515 45H50.4042" stroke="#D9D9D9"/>
<path d="M27.5731 43.2102V42.3409L31.4083 36.2727H32.039V37.6193H31.6129L28.7152 42.2045V42.2727H33.8799V43.2102H27.5731ZM31.6811 45V42.946V42.5412V36.2727H32.6868V45H31.6811ZM38.2042 45.1193C37.7042 45.1193 37.2539 45.0199 36.8533 44.821C36.4527 44.6222 36.1317 44.3494 35.8902 44.0028C35.6488 43.6562 35.5167 43.2614 35.4939 42.8182H36.5167C36.5564 43.2131 36.7354 43.5398 37.0536 43.7983C37.3746 44.054 37.7581 44.1818 38.2042 44.1818C38.5621 44.1818 38.8803 44.098 39.1587 43.9304C39.4399 43.7628 39.6601 43.5327 39.8192 43.2401C39.9811 42.9446 40.0621 42.6108 40.0621 42.2386C40.0621 41.858 39.9783 41.5185 39.8107 41.2202C39.6459 40.919 39.4186 40.6818 39.1289 40.5085C38.8391 40.3352 38.5081 40.2472 38.136 40.2443C37.8689 40.2415 37.5948 40.2827 37.3135 40.3679C37.0323 40.4503 36.8007 40.5568 36.6189 40.6875L35.6303 40.5682L36.1587 36.2727H40.6928V37.2102H37.0451L36.7382 39.7841H36.7894C36.9684 39.642 37.1928 39.5241 37.4627 39.4304C37.7326 39.3366 38.0138 39.2898 38.3064 39.2898C38.8405 39.2898 39.3164 39.4176 39.734 39.6733C40.1544 39.9261 40.484 40.2727 40.7226 40.7131C40.9641 41.1534 41.0848 41.6562 41.0848 42.2216C41.0848 42.7784 40.9598 43.2756 40.7098 43.7131C40.4627 44.1477 40.1218 44.4915 39.6871 44.7443C39.2524 44.9943 38.7581 45.1193 38.2042 45.1193ZM38.1243 60.1193C37.4822 60.1193 36.9353 59.9446 36.4836 59.5952C36.0319 59.2429 35.6868 58.733 35.4481 58.0653C35.2095 57.3949 35.0902 56.5852 35.0902 55.6364C35.0902 54.6932 35.2095 53.8878 35.4481 53.2202C35.6896 52.5497 36.0362 52.0384 36.4879 51.6861C36.9424 51.331 37.4879 51.1534 38.1243 51.1534C38.7606 51.1534 39.3046 51.331 39.7564 51.6861C40.2109 52.0384 40.5575 52.5497 40.7961 53.2202C41.0376 53.8878 41.1583 54.6932 41.1583 55.6364C41.1583 56.5852 41.039 57.3949 40.8004 58.0653C40.5618 58.733 40.2166 59.2429 39.7649 59.5952C39.3132 59.9446 38.7663 60.1193 38.1243 60.1193ZM38.1243 59.1818C38.7606 59.1818 39.2549 58.875 39.6072 58.2614C39.9595 57.6477 40.1356 56.7727 40.1356 55.6364C40.1356 54.8807 40.0546 54.2372 39.8927 53.706C39.7336 53.1747 39.5035 52.7699 39.2024 52.4915C38.9041 52.2131 38.5447 52.0739 38.1243 52.0739C37.4936 52.0739 37.0007 52.3849 36.6456 53.0071C36.2904 53.6264 36.1129 54.5028 36.1129 55.6364C36.1129 56.392 36.1924 57.0341 36.3515 57.5625C36.5106 58.0909 36.7393 58.4929 37.0376 58.7685C37.3387 59.044 37.701 59.1818 38.1243 59.1818Z" fill="#D9D9D9"/>
<path d="M45.7515 5H50.4042" stroke="#D9D9D9"/>
<path d="M30.6871 9.11932C30.3292 9.11364 29.9712 9.04545 29.6132 8.91477C29.2553 8.78409 28.9286 8.56392 28.6331 8.25426C28.3377 7.94176 28.1005 7.51989 27.9215 6.98864C27.7425 6.45455 27.653 5.78409 27.653 4.97727C27.653 4.20455 27.7255 3.51989 27.8703 2.9233C28.0152 2.32386 28.2255 1.8196 28.501 1.41051C28.7766 0.99858 29.109 0.686079 29.4982 0.473011C29.8902 0.259943 30.332 0.153409 30.8235 0.153409C31.3121 0.153409 31.7468 0.25142 32.1274 0.447443C32.511 0.640625 32.8235 0.910511 33.0649 1.2571C33.3064 1.60369 33.4627 2.00284 33.5337 2.45455H32.4939C32.3973 2.0625 32.2098 1.73722 31.9314 1.47869C31.653 1.22017 31.2837 1.09091 30.8235 1.09091C30.1473 1.09091 29.6147 1.38494 29.2255 1.97301C28.8391 2.56108 28.6445 3.38636 28.6417 4.44886H28.7098C28.8689 4.20739 29.0578 4.00142 29.2766 3.83097C29.4982 3.65767 29.7425 3.52415 30.0095 3.4304C30.2766 3.33665 30.5593 3.28977 30.8576 3.28977C31.3576 3.28977 31.8149 3.41477 32.2297 3.66477C32.6445 3.91193 32.9769 4.25426 33.2269 4.69176C33.4769 5.12642 33.6019 5.625 33.6019 6.1875C33.6019 6.72727 33.4811 7.22159 33.2397 7.67045C32.9982 8.11648 32.6587 8.47159 32.2212 8.7358C31.7865 8.99716 31.2752 9.125 30.6871 9.11932ZM30.6871 8.18182C31.0451 8.18182 31.3661 8.09233 31.6502 7.91335C31.9371 7.73437 32.163 7.49432 32.3277 7.19318C32.4953 6.89205 32.5792 6.55682 32.5792 6.1875C32.5792 5.8267 32.4982 5.49858 32.3363 5.20312C32.1772 4.90483 31.957 4.66761 31.6757 4.49148C31.3973 4.31534 31.0792 4.22727 30.7212 4.22727C30.4513 4.22727 30.1999 4.28125 29.9669 4.3892C29.734 4.49432 29.5294 4.6392 29.3533 4.82386C29.18 5.00852 29.0436 5.22017 28.9442 5.45881C28.8448 5.6946 28.7951 5.94318 28.7951 6.20455C28.7951 6.55114 28.876 6.875 29.038 7.17614C29.2027 7.47727 29.4272 7.72017 29.7113 7.90483C29.9982 8.08949 30.3235 8.18182 30.6871 8.18182ZM38.1243 9.11932C37.4822 9.11932 36.9353 8.9446 36.4836 8.59517C36.0319 8.2429 35.6868 7.73295 35.4481 7.06534C35.2095 6.39489 35.0902 5.58523 35.0902 4.63636C35.0902 3.69318 35.2095 2.88778 35.4481 2.22017C35.6896 1.54972 36.0362 1.03835 36.4879 0.686079C36.9424 0.330966 37.4879 0.153409 38.1243 0.153409C38.7606 0.153409 39.3046 0.330966 39.7564 0.686079C40.2109 1.03835 40.5575 1.54972 40.7961 2.22017C41.0376 2.88778 41.1583 3.69318 41.1583 4.63636C41.1583 5.58523 41.039 6.39489 40.8004 7.06534C40.5618 7.73295 40.2166 8.2429 39.7649 8.59517C39.3132 8.9446 38.7663 9.11932 38.1243 9.11932ZM38.1243 8.18182C38.7606 8.18182 39.2549 7.875 39.6072 7.26136C39.9595 6.64773 40.1356 5.77273 40.1356 4.63636C40.1356 3.88068 40.0546 3.23722 39.8927 2.70597C39.7336 2.17472 39.5035 1.76989 39.2024 1.49148C38.9041 1.21307 38.5447 1.07386 38.1243 1.07386C37.4936 1.07386 37.0007 1.38494 36.6456 2.0071C36.2904 2.62642 36.1129 3.50284 36.1129 4.63636C36.1129 5.39205 36.1924 6.03409 36.3515 6.5625C36.5106 7.09091 36.7393 7.4929 37.0376 7.76847C37.3387 8.04403 37.701 8.18182 38.1243 8.18182ZM38.1243 24.1193C37.4822 24.1193 36.9353 23.9446 36.4836 23.5952C36.0319 23.2429 35.6868 22.733 35.4481 22.0653C35.2095 21.3949 35.0902 20.5852 35.0902 19.6364C35.0902 18.6932 35.2095 17.8878 35.4481 17.2202C35.6896 16.5497 36.0362 16.0384 36.4879 15.6861C36.9424 15.331 37.4879 15.1534 38.1243 15.1534C38.7606 15.1534 39.3046 15.331 39.7564 15.6861C40.2109 16.0384 40.5575 16.5497 40.7961 17.2202C41.0376 17.8878 41.1583 18.6932 41.1583 19.6364C41.1583 20.5852 41.039 21.3949 40.8004 22.0653C40.5618 22.733 40.2166 23.2429 39.7649 23.5952C39.3132 23.9446 38.7663 24.1193 38.1243 24.1193ZM38.1243 23.1818C38.7606 23.1818 39.2549 22.875 39.6072 22.2614C39.9595 21.6477 40.1356 20.7727 40.1356 19.6364C40.1356 18.8807 40.0546 18.2372 39.8927 17.706C39.7336 17.1747 39.5035 16.7699 39.2024 16.4915C38.9041 16.2131 38.5447 16.0739 38.1243 16.0739C37.4936 16.0739 37.0007 16.3849 36.6456 17.0071C36.2904 17.6264 36.1129 18.5028 36.1129 19.6364C36.1129 20.392 36.1924 21.0341 36.3515 21.5625C36.5106 22.0909 36.7393 22.4929 37.0376 22.7685C37.3387 23.044 37.701 23.1818 38.1243 23.1818Z" fill="#D9D9D9"/>
<path d="M50.4042 165H514.123" stroke="#CCCCCC"/>
<path d="M50.4042 125H514.123" stroke="#CCCCCC"/>
<path d="M50.4042 85H514.123" stroke="#CCCCCC"/>
<path d="M50.4042 45H514.123" stroke="#CCCCCC"/>
<path d="M50.4042 5H514.123" stroke="#CCCCCC"/>
<path d="M50.4042 5V165" stroke="#CCCCCC"/>
<path d="M101.928 5V165" stroke="#CCCCCC"/>
<path d="M153.453 5V165" stroke="#CCCCCC"/>
<path d="M204.977 5V165" stroke="#CCCCCC"/>
<path d="M256.501 5V165" stroke="#CCCCCC"/>
<path d="M308.026 5V165" stroke="#CCCCCC"/>
<path d="M359.55 5V165" stroke="#CCCCCC"/>
<path d="M411.074 5V165" stroke="#CCCCCC"/>
<path d="M462.598 5V165" stroke="#CCCCCC"/>
<path d="M514.123 5V165" stroke="#CCCCCC"/>
<g filter="url(#filter0_d_113_85)">
<path d="M50.4042 105.8L101.928 75.3999L153.453 101L204.977 64.4666L256.501 101L308.026 44.4666L359.55 40.1999L411.074 125.267L462.598 10.3333L514.123 53.7999" stroke="#DB3636" stroke-width="3"/>
<path d="M50.4042 108.8C51.689 108.8 52.7305 107.457 52.7305 105.8C52.7305 104.143 51.689 102.8 50.4042 102.8C49.1194 102.8 48.0778 104.143 48.0778 105.8C48.0778 107.457 49.1194 108.8 50.4042 108.8Z" fill="white" stroke="#DB3636"/>
<path d="M101.928 78.3999C103.213 78.3999 104.255 77.0568 104.255 75.3999C104.255 73.743 103.213 72.3999 101.928 72.3999C100.644 72.3999 99.6021 73.743 99.6021 75.3999C99.6021 77.0568 100.644 78.3999 101.928 78.3999Z" fill="white" stroke="#DB3636"/>
<path d="M153.453 104C154.738 104 155.779 102.657 155.779 101C155.779 99.3431 154.738 98 153.453 98C152.168 98 151.126 99.3431 151.126 101C151.126 102.657 152.168 104 153.453 104Z" fill="white" stroke="#DB3636"/>
<path d="M204.977 67.4666C206.262 67.4666 207.303 66.1234 207.303 64.4666C207.303 62.8097 206.262 61.4666 204.977 61.4666C203.692 61.4666 202.651 62.8097 202.651 64.4666C202.651 66.1234 203.692 67.4666 204.977 67.4666Z" fill="white" stroke="#DB3636"/>
<path d="M256.501 104C257.786 104 258.828 102.657 258.828 101C258.828 99.3431 257.786 98 256.501 98C255.216 98 254.175 99.3431 254.175 101C254.175 102.657 255.216 104 256.501 104Z" fill="white" stroke="#DB3636"/>
<path d="M308.026 47.4666C309.31 47.4666 310.352 46.1234 310.352 44.4666C310.352 42.8097 309.31 41.4666 308.026 41.4666C306.741 41.4666 305.699 42.8097 305.699 44.4666C305.699 46.1234 306.741 47.4666 308.026 47.4666Z" fill="white" stroke="#DB3636"/>
<path d="M359.55 43.2C360.835 43.2 361.876 41.8568 361.876 40.2C361.876 38.5431 360.835 37.2 359.55 37.2C358.265 37.2 357.224 38.5431 357.224 40.2C357.224 41.8568 358.265 43.2 359.55 43.2Z" fill="white" stroke="#DB3636"/>
<path d="M411.074 128.267C412.359 128.267 413.4 126.923 413.4 125.267C413.4 123.61 412.359 122.267 411.074 122.267C409.789 122.267 408.748 123.61 408.748 125.267C408.748 126.923 409.789 128.267 411.074 128.267Z" fill="white" stroke="#DB3636"/>
<path d="M462.598 13.3333C463.883 13.3333 464.925 11.9901 464.925 10.3333C464.925 8.6764 463.883 7.33325 462.598 7.33325C461.314 7.33325 460.272 8.6764 460.272 10.3333C460.272 11.9901 461.314 13.3333 462.598 13.3333Z" fill="white" stroke="#DB3636"/>
<path d="M514.123 56.7998C515.408 56.7998 516.449 55.4567 516.449 53.7998C516.449 52.143 515.408 50.7998 514.123 50.7998C512.838 50.7998 511.796 52.143 511.796 53.7998C511.796 55.4567 512.838 56.7998 514.123 56.7998Z" fill="white" stroke="#DB3636"/>
</g>
</g>
<defs>
<filter id="filter0_d_113_85" x="39.5778" y="-1.16675" width="485.371" height="137.933" filterUnits="userSpaceOnUse" color-interpolation-filters="sRGB">
<feFlood flood-opacity="0" result="BackgroundImageFix"/>
<feColorMatrix in="SourceAlpha" type="matrix" values="0 0 0 0 0 0 0 0 0 0 0 0 0 0 0 0 0 0 127 0" result="hardAlpha"/>
<feOffset/>
<feGaussianBlur stdDeviation="4"/>
<feComposite in2="hardAlpha" operator="out"/>
<feColorMatrix type="matrix" values="0 0 0 0 0.858333 0 0 0 0 0.211007 0 0 0 0 0.211007 0 0 0 0.7 0"/>
<feBlend mode="normal" in2="BackgroundImageFix" result="effect1_dropShadow_113_85"/>
<feBlend mode="normal" in="SourceGraphic" in2="effect1_dropShadow_113_85" result="shape"/>
</filter>
<clipPath id="clip0_113_85">
<rect width="518" height="200" fill="white"/>
</clipPath>
</defs>
</svg>
