<svg width="24" height="24" viewBox="0 0 24 24" fill="none" xmlns="http://www.w3.org/2000/svg">
<path d="M19 20.0001H5C4.73478 20.0001 4.48043 20.1055 4.29289 20.293C4.10536 20.4805 4 20.7349 4 21.0001C4 21.2653 4.10536 21.5197 4.29289 21.7072C4.48043 21.8947 4.73478 22.0001 5 22.0001H19C19.2652 22.0001 19.5196 21.8947 19.7071 21.7072C19.8946 21.5197 20 21.2653 20 21.0001C20 20.7349 19.8946 20.4805 19.7071 20.293C19.5196 20.1055 19.2652 20.0001 19 20.0001ZM5 18.0001H5.09L9.26 17.6201C9.7168 17.5746 10.144 17.3733 10.47 17.0501L19.47 8.0501C19.8193 7.68107 20.0081 7.18861 19.995 6.68064C19.9819 6.17267 19.7679 5.69061 19.4 5.3401L16.66 2.6001C16.3024 2.2642 15.8338 2.07146 15.3433 2.05855C14.8529 2.04565 14.3748 2.21347 14 2.5301L5 11.5301C4.67676 11.8561 4.4755 12.2833 4.43 12.7401L4 16.9101C3.98653 17.0566 4.00553 17.2042 4.05566 17.3425C4.10579 17.4808 4.1858 17.6063 4.29 17.7101C4.38344 17.8028 4.49426 17.8761 4.61609 17.9259C4.73793 17.9756 4.86839 18.0009 5 18.0001ZM15.27 4.0001L18 6.7301L16 8.6801L13.32 6.0001L15.27 4.0001ZM6.37 12.9101L12 7.3201L14.7 10.0201L9.1 15.6201L6.1 15.9001L6.37 12.9101Z" fill="white" fill-opacity="0.6"/>
</svg>
