<svg width="16" height="16" viewBox="0 0 16 16" fill="none" xmlns="http://www.w3.org/2000/svg">
<path fill-rule="evenodd" clip-rule="evenodd" d="M11.2437 10.1743L15.2787 14.2093C15.4205 14.3512 15.5002 14.5437 15.5001 14.7443C15.5 14.945 15.4202 15.1374 15.2783 15.2792C15.1364 15.421 14.9439 15.5006 14.7433 15.5006C14.5427 15.5005 14.3503 15.4207 14.2084 15.2788L10.1734 11.2438C8.96723 12.1781 7.45041 12.6177 5.93154 12.4733C4.41268 12.3289 3.00587 11.6113 1.99731 10.4665C0.988747 9.3217 0.454191 7.83566 0.502387 6.31071C0.550583 4.78576 1.17791 3.33645 2.25675 2.25761C3.33559 1.17877 4.78491 0.551437 6.30986 0.503241C7.83481 0.455045 9.32084 0.989602 10.4657 1.99816C11.6105 3.00673 12.3281 4.41353 12.4725 5.9324C12.6169 7.45126 12.1772 8.96809 11.2429 10.1743H11.2437ZM6.49995 11.0001C7.69342 11.0001 8.83801 10.5259 9.68193 9.68203C10.5258 8.83812 10.9999 7.69353 10.9999 6.50005C10.9999 5.30658 10.5258 4.16199 9.68193 3.31807C8.83801 2.47416 7.69342 2.00005 6.49995 2.00005C5.30647 2.00005 4.16188 2.47416 3.31797 3.31807C2.47405 4.16199 1.99995 5.30658 1.99995 6.50005C1.99995 7.69353 2.47405 8.83812 3.31797 9.68203C4.16188 10.5259 5.30647 11.0001 6.49995 11.0001Z" fill="black"/>
</svg>
